<mxfile host="app.diagrams.net" modified="2022-10-23T06:57:58.809Z" agent="5.0 (Macintosh; Intel Mac OS X 10_15_7) AppleWebKit/537.36 (KHTML, like Gecko) Chrome/106.0.0.0 Safari/537.36" etag="3mToIrSwmNoxNojqvVp7" version="20.4.1" type="github">
  <diagram id="3AFov8Uf1Q9FbotQsO03" name="第 1 页">
    <mxGraphModel dx="1426" dy="770" grid="0" gridSize="10" guides="1" tooltips="1" connect="1" arrows="1" fold="1" page="1" pageScale="1" pageWidth="3300" pageHeight="4681" math="0" shadow="0">
      <root>
        <mxCell id="0" />
        <mxCell id="1" parent="0" />
        <mxCell id="d8JHSTi1aIzGwKLDUFH--1" value="" style="rounded=0;whiteSpace=wrap;html=1;" vertex="1" parent="1">
          <mxGeometry x="217" y="254" width="347" height="336" as="geometry" />
        </mxCell>
        <mxCell id="d8JHSTi1aIzGwKLDUFH--2" value="&lt;font style=&quot;font-size: 15px;&quot;&gt;rcf_rpc&lt;/font&gt;" style="rounded=0;whiteSpace=wrap;html=1;" vertex="1" parent="1">
          <mxGeometry x="382" y="537" width="127" height="32" as="geometry" />
        </mxCell>
        <mxCell id="d8JHSTi1aIzGwKLDUFH--3" value="raft" style="rounded=0;whiteSpace=wrap;html=1;fontSize=15;" vertex="1" parent="1">
          <mxGeometry x="382" y="409" width="127" height="38" as="geometry" />
        </mxCell>
        <mxCell id="d8JHSTi1aIzGwKLDUFH--6" value="" style="endArrow=classic;html=1;rounded=0;fontSize=15;exitX=0.5;exitY=1;exitDx=0;exitDy=0;" edge="1" parent="1" source="d8JHSTi1aIzGwKLDUFH--3" target="d8JHSTi1aIzGwKLDUFH--2">
          <mxGeometry width="50" height="50" relative="1" as="geometry">
            <mxPoint x="699" y="419" as="sourcePoint" />
            <mxPoint x="749" y="369" as="targetPoint" />
          </mxGeometry>
        </mxCell>
        <mxCell id="d8JHSTi1aIzGwKLDUFH--8" value="" style="rounded=0;whiteSpace=wrap;html=1;" vertex="1" parent="1">
          <mxGeometry x="773" y="254" width="347" height="336" as="geometry" />
        </mxCell>
        <mxCell id="d8JHSTi1aIzGwKLDUFH--9" value="&lt;font style=&quot;font-size: 15px;&quot;&gt;rcf_rpc&lt;/font&gt;" style="rounded=0;whiteSpace=wrap;html=1;" vertex="1" parent="1">
          <mxGeometry x="825" y="537" width="127" height="32" as="geometry" />
        </mxCell>
        <mxCell id="d8JHSTi1aIzGwKLDUFH--10" value="raft" style="rounded=0;whiteSpace=wrap;html=1;fontSize=15;" vertex="1" parent="1">
          <mxGeometry x="825" y="409" width="127" height="38" as="geometry" />
        </mxCell>
        <mxCell id="d8JHSTi1aIzGwKLDUFH--12" value="" style="endArrow=classic;html=1;rounded=0;fontSize=15;exitX=1;exitY=0.5;exitDx=0;exitDy=0;entryX=0;entryY=0.5;entryDx=0;entryDy=0;" edge="1" parent="1" source="d8JHSTi1aIzGwKLDUFH--2" target="d8JHSTi1aIzGwKLDUFH--9">
          <mxGeometry width="50" height="50" relative="1" as="geometry">
            <mxPoint x="699" y="419" as="sourcePoint" />
            <mxPoint x="749" y="369" as="targetPoint" />
          </mxGeometry>
        </mxCell>
        <mxCell id="d8JHSTi1aIzGwKLDUFH--13" value="" style="endArrow=classic;html=1;rounded=0;fontSize=15;exitX=0.5;exitY=0;exitDx=0;exitDy=0;" edge="1" parent="1" source="d8JHSTi1aIzGwKLDUFH--9" target="d8JHSTi1aIzGwKLDUFH--10">
          <mxGeometry width="50" height="50" relative="1" as="geometry">
            <mxPoint x="699" y="419" as="sourcePoint" />
            <mxPoint x="749" y="369" as="targetPoint" />
          </mxGeometry>
        </mxCell>
        <mxCell id="d8JHSTi1aIzGwKLDUFH--14" value="&lt;font style=&quot;font-size: 13px;&quot;&gt;send(AppendEntriesArgs)&lt;/font&gt;" style="text;html=1;strokeColor=none;fillColor=none;align=center;verticalAlign=middle;whiteSpace=wrap;rounded=0;fontSize=15;" vertex="1" parent="1">
          <mxGeometry x="360" y="470" width="165" height="30" as="geometry" />
        </mxCell>
        <mxCell id="d8JHSTi1aIzGwKLDUFH--15" value="&lt;font style=&quot;font-size: 13px;&quot;&gt;process(AppendEntriesArgs)&lt;/font&gt;" style="text;html=1;strokeColor=none;fillColor=none;align=center;verticalAlign=middle;whiteSpace=wrap;rounded=0;fontSize=15;" vertex="1" parent="1">
          <mxGeometry x="806" y="470" width="165" height="30" as="geometry" />
        </mxCell>
      </root>
    </mxGraphModel>
  </diagram>
</mxfile>
